<svg id="图层_1" data-name="图层 1" xmlns="http://www.w3.org/2000/svg" viewBox="0 0 240 240"><defs><style>.cls-1{fill:#fff;}</style></defs><path d="M168.47,35.07H71.53L23.06,119l48.47,84h96.94L216.94,119ZM101.55,98.56a138.49,138.49,0,0,1,7.52-16.33A132,132,0,0,1,102,98.52a9.82,9.82,0,0,1-1.81,4.31A10.5,10.5,0,0,1,101.55,98.56Zm-2,6.57c.21,1.85-.85,3.36-1.43,5C98.46,108.44,98.36,106.63,99.56,105.13ZM72.07,73.26a1.52,1.52,0,0,1,1.51-1.52H90.16v5H77.09V89.84h-5Zm46.41,95.91-.94,0a51.78,51.78,0,0,1-26.16-7.58c0-.08-.09-.16-.14-.23a13.92,13.92,0,0,1-1.08-2.28v4.21H73.58a1.52,1.52,0,0,1-1.51-1.51V145.17h5v13.07h12.8a20.22,20.22,0,0,1-.69-5.78c-.37-3.45.26-6.86.6-10.25a5.37,5.37,0,0,1,3.69-4.67A10,10,0,0,1,95.86,136a4.24,4.24,0,0,1-3-1.35,3.55,3.55,0,0,1-.79-4.6c.69-1.17,1.06-2.51,2.44-3.22.77-.39.47-1.2.12-1.86a10,10,0,0,1-1.45-3.21,160.79,160.79,0,0,1-7-15c-.25-.63-.8-1.18-.68-2-.79-1.77-1.64-3.51-2.33-5.32A3.83,3.83,0,0,0,80.8,97c-1.09-.38-1.37-1-.74-2.08a3.69,3.69,0,0,0,.48-2.33,1.49,1.49,0,0,1,1-1.63c.73-.37,1,.32,1.3.65a9.8,9.8,0,0,0,2.9,2.29,1.13,1.13,0,0,1,.67,1.78c-.72,1.27-.37,2.41.29,3.62.9,1.63,1.64,3.35,2.45,5,1.86,3.9,4.09,7.63,5.46,11.76a29.34,29.34,0,0,0,1.26,2.74c.48,1.07.64-.28,1-.13-.1-1.09.57-1.93,1-2.86-.85-.55.13-1.1,0-1.65-.48-1.27.29-2.11.79-3.19,1-2,2-4.07,2.86-6.16s1.82-4,2.76-6c.23-.48.4-1,1-1.23,1.34-3.21,2.78-6.38,4-9.63a59.87,59.87,0,0,1,4-8.19l1.77-2.71a.23.23,0,0,1,.11-.25c.16-.67-.19-.79-.69-.55a10.92,10.92,0,0,0-2.18,1.28,5.93,5.93,0,0,1,3.59-3.22l.42-.24v-.74l-1.18.13c-.64.25-1.27.52-1.92.75-.24.09-.55.13-.68-.19s.11-.48.38-.57a7.07,7.07,0,0,1,2.28-.73l2.93-.65c.23-1.56.31-1.58,1.93-.45l3.38,1.14c1.34,0,.77-.91.54-1.88,2.12,1,2.55,2.69,3.05,4.35l0,0,.54-.22v-1.4c-.29-.68-.64-1.36.18-1.94a2.29,2.29,0,0,1,1.13,2.73c-.57,2.48.39,4.39,2.39,5.89,1.26,1,1.1,3.76-.24,4.54-.34.19-.37.35-.19.57a1.77,1.77,0,0,1,.2,1.41c-.09,1,.41,1.33,1.24,1.54a11,11,0,0,1,3.32,1.19c3,1.89,4.59,4.81,5.84,8a8.66,8.66,0,0,1,.84,3.09c.44.38.58.77.05,1.18,0,.44.06.87.1,1.31,1.05,2.54,2.42,4.95,2.05,7.91a17.36,17.36,0,0,0,.44,4.14c1,2.2-.63,4.14-.62,6.24l-.62-.09h0a4.79,4.79,0,0,1-.27,2.37c0,1.14.12,2.28-1,3.19a14.83,14.83,0,0,1,.17-8.3,9.81,9.81,0,0,0-2.27-4.28l-.47.36a26.88,26.88,0,0,1-3.32,8c-.7,2.29-2.17,4.2-3.19,6.33-.5,1.06-.27,1.56.7,2a51.86,51.86,0,0,1,6.2,3.82,17.12,17.12,0,0,0,6,2.43,1.55,1.55,0,0,1-.23.34,1.55,1.55,0,0,0,.23-.34c3,1.17,5.94,2.38,8.05,5a46,46,0,0,0,5.91,5.93,52,52,0,0,1-40.76,21C119.17,169.15,118.83,169.17,118.48,169.17Zm52.39-7.42a1.52,1.52,0,0,1-1.5,1.52H152.78v-5h13.07V145.17h5Zm-5-71.91V76.77H152.78v-5h16.58a1.52,1.52,0,0,1,1.51,1.51V89.84Z"/><path d="M143.07,120.59a3.07,3.07,0,0,0,.05.68l.57.06-.57-.06A3.07,3.07,0,0,1,143.07,120.59Z"/><path d="M118.48,169.17c.35,0,.69,0,1,0h-2Z"/><path d="M97.81,120.69c.13-.44.19-.9.34-1.33,0-.15,0-.3,0-.45,0,.15,0,.3,0,.45C98,119.79,97.94,120.25,97.81,120.69Z"/><path class="cls-1" d="M89.89,158.24l.27.82v-.82Z"/></svg>